<svg xmlns="http://www.w3.org/2000/svg" width="982" height="1002" viewBox="0 0 982 1002">
    <g fill="#000" fill-rule="evenodd" font-family="AppleColorEmoji, Apple Color Emoji" opacity=".1">
        <text font-size="50" letter-spacing="4.063" transform="rotate(16 294.346 -1.135)">
            <tspan x="251.469" y="58">🍆</tspan>
        </text>
        <text font-size="50" letter-spacing="4.063" transform="rotate(68 189.448 482.846)">
            <tspan x="163.469" y="511">🍆</tspan>
        </text>
        <text font-size="50" letter-spacing="4.063" transform="rotate(14 123.433 297.206)">
            <tspan x="77.469" y="362">🍆</tspan>
        </text>
        <text font-size="45" letter-spacing="3.656" transform="rotate(24 43.114 35.625)">
            <tspan x="10.172" y="80">🍑</tspan>
        </text>
        <text font-size="45" letter-spacing="3.656" transform="rotate(24 101.114 173.625)">
            <tspan x="68.172" y="218">🍑</tspan>
        </text>
        <text font-size="45" letter-spacing="3.656" transform="rotate(-38 325.287 485.473)">
            <tspan x="315.172" y="488">🍑</tspan>
        </text>
        <text font-size="45" letter-spacing="3.656" transform="rotate(20 61.014 574.308)">
            <tspan x="25.172" y="624">🍑</tspan>
        </text>
        <text font-size="50" letter-spacing="4.063" transform="rotate(68 284.448 256.846)">
            <tspan x="258.469" y="285">🍆</tspan>
        </text>
        <text font-size="50" letter-spacing="4.063" transform="rotate(16 393.346 675.865)">
            <tspan x="350.469" y="735">🍆</tspan>
        </text>
        <text font-size="50" letter-spacing="4.063" transform="rotate(14 222.433 877.206)">
            <tspan x="176.469" y="942">🍆</tspan>
        </text>
        <text font-size="45" letter-spacing="3.656" transform="rotate(24 142.114 712.625)">
            <tspan x="109.172" y="757">🍑</tspan>
        </text>
        <text font-size="45" letter-spacing="3.656" transform="rotate(24 62.114 895.625)">
            <tspan x="29.172" y="940">🍑</tspan>
        </text>
        <text font-size="50" letter-spacing="4.063" transform="rotate(68 383.448 933.846)">
            <tspan x="357.469" y="962">🍆</tspan>
        </text>
        <text font-size="50" letter-spacing="4.063" transform="rotate(68 970.448 482.846)">
            <tspan x="944.469" y="511">🍆</tspan>
        </text>
        <text font-size="50" letter-spacing="4.063" transform="rotate(14 904.433 297.206)">
            <tspan x="858.469" y="362">🍆</tspan>
        </text>
        <text font-size="50" letter-spacing="4.063" transform="rotate(14 973.433 31.206)">
            <tspan x="927.469" y="96">🍆</tspan>
        </text>
        <text font-size="45" letter-spacing="3.656" transform="rotate(24 840.114 25.625)">
            <tspan x="807.172" y="70">🍑</tspan>
        </text>
        <text font-size="45" letter-spacing="3.656" transform="rotate(24 882.114 173.625)">
            <tspan x="849.172" y="218">🍑</tspan>
        </text>
        <text font-size="45" letter-spacing="3.656" transform="rotate(20 842.014 574.308)">
            <tspan x="806.172" y="624">🍑</tspan>
        </text>
        <text font-size="50" letter-spacing="4.063" transform="rotate(14 979.433 805.206)">
            <tspan x="933.469" y="870">🍆</tspan>
        </text>
        <text font-size="45" letter-spacing="3.656" transform="rotate(24 957.114 681.625)">
            <tspan x="924.172" y="726">🍑</tspan>
        </text>
        <text font-size="50" letter-spacing="4.063" transform="rotate(16 689.346 27.865)">
            <tspan x="646.469" y="87">🍆</tspan>
        </text>
        <text font-size="50" letter-spacing="4.063" transform="rotate(68 584.448 482.846)">
            <tspan x="558.469" y="511">🍆</tspan>
        </text>
        <text font-size="50" letter-spacing="4.063" transform="rotate(14 518.433 297.206)">
            <tspan x="472.469" y="362">🍆</tspan>
        </text>
        <text font-size="45" letter-spacing="3.656" transform="rotate(24 454.114 8.625)">
            <tspan x="421.172" y="53">🍑</tspan>
        </text>
        <text font-size="45" letter-spacing="3.656" transform="rotate(24 496.114 173.625)">
            <tspan x="463.172" y="218">🍑</tspan>
        </text>
        <text font-size="45" letter-spacing="3.656" transform="rotate(-38 720.287 485.473)">
            <tspan x="710.172" y="488">🍑</tspan>
        </text>
        <text font-size="45" letter-spacing="3.656" transform="rotate(20 456.014 574.308)">
            <tspan x="420.172" y="624">🍑</tspan>
        </text>
        <text font-size="50" letter-spacing="4.063" transform="rotate(68 679.448 256.846)">
            <tspan x="653.469" y="285">🍆</tspan>
        </text>
        <text font-size="50" letter-spacing="4.063" transform="rotate(16 805.346 675.865)">
            <tspan x="762.469" y="735">🍆</tspan>
        </text>
        <text font-size="50" letter-spacing="4.063" transform="rotate(14 634.433 935.206)">
            <tspan x="588.469" y="1000">🍆</tspan>
        </text>
        <text font-size="45" letter-spacing="3.656" transform="rotate(24 570.114 665.625)">
            <tspan x="537.172" y="710">🍑</tspan>
        </text>
        <text font-size="45" letter-spacing="3.656" transform="rotate(24 612.114 850.625)">
            <tspan x="579.172" y="895">🍑</tspan>
        </text>
        <text font-size="50" letter-spacing="4.063" transform="rotate(68 795.448 933.846)">
            <tspan x="769.469" y="962">🍆</tspan>
        </text>
    </g>
</svg>
